<svg width="231" height="28" viewBox="0 0 231 28" fill="none" xmlns="http://www.w3.org/2000/svg">
<path d="M223 27.7292C219.506 27.7292 216.307 25.9639 213.769 23.6838L215.682 18.241C216.711 19.5281 220.462 21.514 222.228 21.514C223.11 21.514 223.956 21.183 224.25 20.4843C225.611 16.9906 213.585 16.586 214.027 8.75272C214.284 4.0086 217.668 0.919404 221.823 0.919404C224.581 0.919404 227.229 2.39045 229.399 4.96478L227.229 9.78245C225.721 8.67917 224.03 7.31845 222.485 6.73003C222.265 6.65648 222.044 6.6197 221.823 6.6197C220.793 6.6197 219.837 7.42878 219.911 8.38496C220.095 11.7316 230.024 12.1361 230.245 20.0062C230.355 24.0516 227.376 27.7292 223 27.7292Z" fill="#C50B2A"/>
<path d="M200.943 27.5821V6.32549H195.72V0.809076H211.902V6.32549H206.68V27.5821H200.943Z" fill="#C50B2A"/>
<path d="M184.633 27.5085C178.86 27.5821 176.763 23.5735 176.763 19.6017V0.882629H182.647V19.2707C182.647 20.8153 183.53 21.6979 184.633 21.6979C185.737 21.6979 186.619 21.1095 186.619 19.2707V0.882629H192.503V19.6017C192.503 23.7206 190.076 27.5821 184.633 27.5085Z" fill="#C50B2A"/>
<path d="M157.507 27.5821V0.809076H162.251L166.554 12.2097V0.809076H171.96V27.5821H167.988L162.913 15.2253V27.5821H157.507Z" fill="#C50B2A"/>
<path d="M111.546 27.5821V0.809076H118.239C124.16 0.809076 125.631 6.58293 125.631 14.1956C125.631 21.845 124.16 27.5821 118.239 27.5821H111.546ZM117.32 21.3302H117.871C118.46 21.3302 119.747 18.6087 119.747 14.1956C119.747 9.78245 118.46 7.42878 117.871 7.42878H117.32V21.3302Z" fill="#C50B2A"/>
<path d="M90.9953 27.7292C87.5016 27.7292 84.3021 25.9639 81.7645 23.6838L83.6769 18.241C84.7066 19.5281 88.4578 21.514 90.223 21.514C91.1056 21.514 91.9515 21.183 92.2457 20.4843C93.6064 16.9906 81.5806 16.586 82.0219 8.75272C82.2794 4.0086 85.6628 0.919404 89.8185 0.919404C92.5767 0.919404 95.2246 2.39045 97.3944 4.96478L95.2246 9.78245C93.7168 8.67917 92.0251 7.31845 90.4805 6.73003C90.2598 6.65648 90.0391 6.6197 89.8185 6.6197C88.7888 6.6197 87.8326 7.42878 87.9061 8.38496C88.09 11.7316 98.0196 12.1361 98.2402 20.0062C98.3505 24.0516 95.3717 27.7292 90.9953 27.7292Z" fill="#C50B2A"/>
<path d="M77.1661 9.92955L74.4446 8.45851C75.4376 6.76681 76.026 5.47964 76.026 3.27308V0H80.5495V3.05242C80.5495 6.28872 79.0784 8.45851 77.1661 9.92955Z" fill="#C50B2A"/>
<path d="M62.1502 27.5821V6.32549H56.928V0.809076H73.1095V6.32549H67.8873V27.5821H62.1502Z" fill="#C50B2A"/>
<path d="M41.0559 27.5821V0.809076H48.4112C52.3094 0.809076 55.2147 3.45696 55.2147 7.83332V10.6651C55.2147 14.0117 54.185 16.1447 52.5301 17.3216L56.5387 27.5821H50.8384L47.3814 18.5352H46.7195V27.5821H41.0559ZM46.7195 12.8349H47.2343C47.8595 12.8349 49.5144 12.8349 49.5144 11.4742V7.83332C49.5144 6.39905 48.3744 6.39905 47.3079 6.39905H46.7195V12.8349Z" fill="#C50B2A"/>
<path d="M21.4988 27.5821V8.53206C21.4988 4.44991 24.588 0.809076 29.2218 0.809076C33.8556 0.809076 36.9815 4.44991 36.9815 8.53206V27.5821H31.0974V18.8294H27.383V27.5821H21.4988ZM27.383 12.5774H31.0974V9.04693C31.0974 7.53911 30.3251 6.69326 29.2218 6.69326C28.1185 6.69326 27.383 7.53911 27.383 9.04693V12.5774Z" fill="#C50B2A"/>
<path d="M0 27.5821V0.809076H4.81767L8.9366 10.4812L13.0555 0.809076H17.8732V27.5821H12.7613V14.3059L9.0837 22.6541H8.78949L5.14866 14.2691V27.5821H0Z" fill="#C50B2A"/>
<path fill-rule="evenodd" clip-rule="evenodd" d="M141.346 17.5522C143.192 17.5522 144.689 16.0554 144.689 14.209C144.689 12.3625 143.192 10.8657 141.346 10.8657C139.499 10.8657 138.002 12.3625 138.002 14.209C138.002 16.0554 139.499 17.5522 141.346 17.5522ZM141.346 27.5821C148.731 27.5821 154.719 21.5947 154.719 14.209C154.719 6.82318 148.731 0.835823 141.346 0.835823C133.96 0.835823 127.973 6.82318 127.973 14.209C127.973 21.5947 133.96 27.5821 141.346 27.5821Z" fill="#3D2A2A"/>
</svg>
